<svg width="75" height="35" viewBox="0 0 75 35" fill="none" xmlns="http://www.w3.org/2000/svg">
<rect width="75" height="34" transform="translate(0 0.5)" fill="black"/>
<rect y="0.5" width="34" height="34" rx="17" fill="black"/>
<path d="M18.705 9.36832L15.2483 9.35999H15.2467C11.6017 9.35999 8.74667 12.2158 8.74667 15.8617C8.74667 19.2767 11.4017 21.8667 14.9675 22.0033V25.1933C14.9675 25.2833 15.0042 25.4317 15.0675 25.5292C15.1858 25.7167 15.3875 25.8183 15.5942 25.8183C15.7092 25.8183 15.825 25.7867 15.9292 25.72C16.1492 25.58 21.3233 22.27 22.6692 21.1317C24.2542 19.79 25.2025 17.8233 25.205 15.8717V15.8575C25.2 12.2183 22.3467 9.36832 18.705 9.36749V9.36832ZM21.8608 20.1783C20.9158 20.9783 17.8092 23.0158 16.2175 24.0475V21.3917C16.2175 21.0467 15.9383 20.7667 15.5925 20.7667H15.2625C12.2125 20.7667 9.99751 18.7033 9.99751 15.8617C9.99751 12.9167 12.3042 10.61 15.2475 10.61L18.7033 10.6183H18.705C21.6483 10.6183 23.955 12.9233 23.9567 15.865C23.9542 17.4567 23.1717 19.0683 21.8617 20.1783H21.8608Z" fill="#6E767D"/>
<rect width="38" height="16" transform="translate(34 9.5)" fill="black"/>
<path d="M49.1929 22.5H50.0562V13.3403H49.1929C48.8184 13.5625 46.9204 14.9082 46.7236 15.0352V15.9556C47.0347 15.7524 48.8818 14.4385 49.1104 14.3115H49.1929V22.5ZM55.6929 22.6841C57.8828 22.6841 59.1523 20.8306 59.1523 17.7266C59.1523 16.5586 58.9492 15.6191 58.543 14.9082C57.9717 13.772 56.9941 13.1499 55.7563 13.1499C53.9219 13.1499 52.6016 14.4829 52.6016 16.3047C52.6016 18.0503 53.8711 19.3389 55.623 19.3389C56.8228 19.3389 57.8384 18.666 58.2319 17.6567C58.2383 17.6567 58.251 17.6567 58.251 17.6567C58.2573 17.6567 58.27 17.6567 58.27 17.6567C58.2764 17.7202 58.3145 17.8027 58.3081 17.8662C58.2446 20.4307 57.3242 21.9097 55.7056 21.9097C54.6519 21.9097 53.8774 21.2812 53.6553 20.3481H52.7666C53.0269 21.7637 54.1504 22.6841 55.6929 22.6841ZM55.7627 18.5835C54.417 18.5835 53.4775 17.606 53.4775 16.2793C53.4775 14.9399 54.4614 13.918 55.769 13.918C57.083 13.918 58.0796 14.9717 58.0796 16.3301C58.0796 17.5933 57.0767 18.5835 55.7627 18.5835Z" fill="#6E767D"/>
</svg>
