<svg width="75" height="35" viewBox="0 0 75 35" fill="none" xmlns="http://www.w3.org/2000/svg">
<rect width="75" height="34" transform="translate(0 0.5)" fill="black"/>
<rect y="0.5" width="34" height="34" rx="17" fill="black"/>
<path d="M26.8083 20.5583C26.565 20.3142 26.1692 20.3142 25.925 20.5583L24.075 22.4083V13.875C24.075 12.1517 22.6725 10.75 20.95 10.75H16.075C15.73 10.75 15.45 11.03 15.45 11.375C15.45 11.72 15.73 12 16.075 12H20.95C21.9833 12 22.825 12.8417 22.825 13.875V22.4083L20.975 20.5583C20.7308 20.3142 20.335 20.3142 20.0917 20.5583C19.8483 20.8025 19.8467 21.1983 20.0917 21.4417L23.0083 24.3583C23.1292 24.4808 23.2892 24.5417 23.45 24.5417C23.6108 24.5417 23.7692 24.4817 23.8917 24.3583L26.8083 21.4417C27.0533 21.1983 27.0533 20.8025 26.8083 20.5583ZM17.925 23.2917H13.05C12.0167 23.2917 11.175 22.45 11.175 21.4167V12.8833L13.025 14.7333C13.1483 14.8558 13.3083 14.9167 13.4683 14.9167C13.6283 14.9167 13.7883 14.8558 13.91 14.7333C14.1542 14.4892 14.1542 14.0933 13.91 13.85L10.9933 10.9333C10.7492 10.6883 10.3533 10.6883 10.11 10.9333L7.19333 13.85C6.94833 14.0933 6.94833 14.4892 7.19333 14.7333C7.43833 14.9775 7.8325 14.9775 8.07667 14.7333L9.92667 12.8833V21.4167C9.92667 23.14 11.3292 24.5417 13.0517 24.5417H17.9267C18.2717 24.5417 18.5517 24.2617 18.5517 23.9167C18.5517 23.5717 18.2708 23.2917 17.9267 23.2917H17.925Z" fill="#6E767D"/>
<rect width="41" height="16" transform="translate(34 9.5)" fill="black"/>
<path d="M51.3574 22.5H52.2017V20.4307H53.5728V19.6499H52.2017V13.3276H50.9575C48.7041 16.4951 47.5742 18.2534 46.7554 19.6372V20.4307H51.3574V22.5ZM47.6631 19.5991C48.647 17.9614 49.5547 16.5396 51.3003 14.1592H51.3574V19.6562H47.6631V19.5991ZM58.4351 22.6904C60.3584 22.6904 61.6851 21.605 61.6851 20.0308C61.6851 18.8438 60.8789 17.9043 59.6855 17.6885V17.6123C60.6821 17.3711 61.3232 16.5713 61.3232 15.5747C61.3232 14.1528 60.1235 13.1499 58.4351 13.1499C56.7466 13.1499 55.5469 14.1592 55.5469 15.5747C55.5469 16.5776 56.1943 17.3774 57.1909 17.6123V17.6885C55.9912 17.9043 55.1914 18.8438 55.1914 20.0308C55.1914 21.5986 56.5181 22.6904 58.4351 22.6904ZM58.4351 21.9414C57.0322 21.9414 56.0674 21.1353 56.0674 19.9736C56.0674 18.8438 57.0322 18.063 58.4351 18.063C59.8442 18.063 60.8091 18.8374 60.8091 19.9736C60.8091 21.1353 59.8379 21.9414 58.4351 21.9414ZM58.4351 17.314C57.229 17.314 56.4038 16.6348 56.4038 15.6445C56.4038 14.6099 57.229 13.8989 58.4351 13.8989C59.6411 13.8989 60.4663 14.6099 60.4663 15.6445C60.4663 16.6411 59.6411 17.314 58.4351 17.314Z" fill="#6E767D"/>
</svg>
