<svg width="83" height="35" viewBox="0 0 83 35" fill="none" xmlns="http://www.w3.org/2000/svg">
<rect width="75" height="34" transform="translate(0 0.5)" fill="black"/>
<rect y="0.5" width="34" height="34" rx="17" fill="black"/>
<path d="M17 25.5317H16.9883C14.8358 25.4917 8.625 19.88 8.625 14.565C8.625 12.0117 10.7292 9.77002 13.1275 9.77002C15.0358 9.77002 16.3192 11.0867 16.9992 12.045C17.6775 11.0884 18.9608 9.77002 20.87 9.77002C23.27 9.77002 25.3733 12.0117 25.3733 14.5659C25.3733 19.8792 19.1617 25.4909 17.0092 25.53H17V25.5317ZM13.1283 11.0209C11.395 11.0209 9.87583 12.6775 9.87583 14.5667C9.87583 19.35 15.7375 24.23 17.0008 24.2817C18.2658 24.23 24.1258 19.3509 24.1258 14.5667C24.1258 12.6775 22.6067 11.0209 20.8733 11.0209C18.7667 11.0209 17.59 13.4675 17.58 13.4917C17.3883 13.96 16.6167 13.96 16.4242 13.4917C16.4125 13.4667 15.2367 11.0209 13.1292 11.0209H13.1283Z" fill="#6E767D"/>
<rect width="49" height="16" transform="translate(34 9.5)" fill="black"/>
<path d="M51.3574 22.5H52.2017V20.4307H53.5728V19.6499H52.2017V13.3276H50.9575C48.7041 16.4951 47.5742 18.2534 46.7554 19.6372V20.4307H51.3574V22.5ZM47.6631 19.5991C48.647 17.9614 49.5547 16.5396 51.3003 14.1592H51.3574V19.6562H47.6631V19.5991ZM58.4351 22.6904C60.3584 22.6904 61.6851 21.605 61.6851 20.0308C61.6851 18.8438 60.8789 17.9043 59.6855 17.6885V17.6123C60.6821 17.3711 61.3232 16.5713 61.3232 15.5747C61.3232 14.1528 60.1235 13.1499 58.4351 13.1499C56.7466 13.1499 55.5469 14.1592 55.5469 15.5747C55.5469 16.5776 56.1943 17.3774 57.1909 17.6123V17.6885C55.9912 17.9043 55.1914 18.8438 55.1914 20.0308C55.1914 21.5986 56.5181 22.6904 58.4351 22.6904ZM58.4351 21.9414C57.0322 21.9414 56.0674 21.1353 56.0674 19.9736C56.0674 18.8438 57.0322 18.063 58.4351 18.063C59.8442 18.063 60.8091 18.8374 60.8091 19.9736C60.8091 21.1353 59.8379 21.9414 58.4351 21.9414ZM58.4351 17.314C57.229 17.314 56.4038 16.6348 56.4038 15.6445C56.4038 14.6099 57.229 13.8989 58.4351 13.8989C59.6411 13.8989 60.4663 14.6099 60.4663 15.6445C60.4663 16.6411 59.6411 17.314 58.4351 17.314ZM63.5068 15.8667V15.873H64.3511V15.8667C64.3638 14.7114 65.1826 13.9116 66.3633 13.9116C67.4868 13.9116 68.3564 14.7051 68.3564 15.7271C68.3564 16.5142 68.0327 17.0601 66.7568 18.4312L63.5576 21.8906V22.5H69.4546V21.7129H64.8081V21.6367L67.2837 18.9961C68.7881 17.3901 69.2261 16.6475 69.2261 15.6953C69.2261 14.2544 67.9946 13.1499 66.3823 13.1499C64.7256 13.1499 63.5195 14.2861 63.5068 15.8667Z" fill="#6E767D"/>
</svg>
