<svg width="75" height="35" viewBox="0 0 75 35" fill="none" xmlns="http://www.w3.org/2000/svg">
<rect width="75" height="34" transform="translate(0 0.5)" fill="black"/>
<rect y="0.5" width="34" height="34" rx="17" fill="black"/>
<path d="M21.6084 13.725L17.4417 9.55831C17.1975 9.31414 16.8017 9.31414 16.5584 9.55831L12.3917 13.725C12.1467 13.9691 12.1467 14.365 12.3917 14.6083C12.6367 14.8516 13.0309 14.8533 13.275 14.6083L16.375 11.5083V20C16.375 20.345 16.655 20.625 17 20.625C17.345 20.625 17.625 20.345 17.625 20V11.5083L20.725 14.6083C20.8467 14.7308 21.0067 14.7916 21.1667 14.7916C21.3267 14.7916 21.4867 14.7316 21.6084 14.6083C21.8525 14.3641 21.8525 13.9691 21.6084 13.725Z" fill="#6E767D"/>
<path d="M23.4234 25.7866H10.5767C9.52335 25.7866 8.66669 24.93 8.66669 23.8766V19.1666C8.66669 18.8216 8.94669 18.5416 9.29169 18.5416C9.63669 18.5416 9.91669 18.8216 9.91669 19.1666V23.8766C9.91669 24.2408 10.2125 24.5366 10.5767 24.5366H23.4234C23.7875 24.5366 24.0834 24.2408 24.0834 23.8766V19.1666C24.0834 18.8216 24.3634 18.5416 24.7084 18.5416C25.0534 18.5416 25.3334 18.8216 25.3334 19.1666V23.8766C25.3334 24.93 24.4767 25.7866 23.4234 25.7866Z" fill="#6E767D"/>
</svg>
