<svg width="75" height="34" viewBox="0 0 75 34" fill="none" xmlns="http://www.w3.org/2000/svg">
<rect width="75" height="34" fill="black"/>
<rect width="34" height="34" rx="17" fill="black"/>
<path d="M18.705 8.86833L15.2483 8.86H15.2467C11.6017 8.86 8.74667 11.7158 8.74667 15.3617C8.74667 18.7767 11.4017 21.3667 14.9675 21.5033V24.6933C14.9675 24.7833 15.0042 24.9317 15.0675 25.0292C15.1858 25.2167 15.3875 25.3183 15.5942 25.3183C15.7092 25.3183 15.825 25.2867 15.9292 25.22C16.1492 25.08 21.3233 21.77 22.6692 20.6317C24.2542 19.29 25.2025 17.3233 25.205 15.3717V15.3575C25.2 11.7183 22.3467 8.86833 18.705 8.8675V8.86833ZM21.8608 19.6783C20.9158 20.4783 17.8092 22.5158 16.2175 23.5475V20.8917C16.2175 20.5467 15.9383 20.2667 15.5925 20.2667H15.2625C12.2125 20.2667 9.99751 18.2033 9.99751 15.3617C9.99751 12.4167 12.3042 10.11 15.2475 10.11L18.7033 10.1183H18.705C21.6483 10.1183 23.955 12.4233 23.9567 15.365C23.9542 16.9567 23.1717 18.5683 21.8617 19.6783H21.8608Z" fill="#6E767D"/>
<rect width="40" height="16" transform="translate(34 9)" fill="black"/>
<path d="M49.9927 22.1904C51.8525 22.1904 53.1665 20.9082 53.1665 19.0928C53.1665 17.3218 51.916 16.0586 50.1577 16.0586C49.2627 16.0586 48.501 16.3887 48.063 16.96H47.9805L48.2852 13.6211H52.5952V12.8403H47.5996L47.1045 17.9565H47.9297C48.3169 17.252 49.1167 16.814 50.0181 16.814C51.3384 16.814 52.2969 17.7725 52.2969 19.1182C52.2969 20.4639 51.3384 21.4224 49.999 21.4224C48.8438 21.4224 47.9106 20.6606 47.8154 19.6323H46.9648C47.0601 21.124 48.3296 22.1904 49.9927 22.1904ZM55.3945 22H56.3213L60.5171 13.6528V12.8403H54.5503V13.6211H59.6284V13.6909L55.3945 22Z" fill="#6E767D"/>
</svg>
