<svg width="81" height="34" viewBox="0 0 81 34" fill="none" xmlns="http://www.w3.org/2000/svg">
<rect width="75" height="34" fill="black"/>
<rect width="34" height="34" rx="17" fill="black"/>
<path d="M26.8083 20.0583C26.565 19.8142 26.1692 19.8142 25.925 20.0583L24.075 21.9083V13.375C24.075 11.6517 22.6725 10.25 20.95 10.25H16.075C15.73 10.25 15.45 10.53 15.45 10.875C15.45 11.22 15.73 11.5 16.075 11.5H20.95C21.9833 11.5 22.825 12.3417 22.825 13.375V21.9083L20.975 20.0583C20.7308 19.8142 20.335 19.8142 20.0917 20.0583C19.8483 20.3025 19.8467 20.6983 20.0917 20.9417L23.0083 23.8583C23.1292 23.9808 23.2892 24.0417 23.45 24.0417C23.6108 24.0417 23.7692 23.9817 23.8917 23.8583L26.8083 20.9417C27.0533 20.6983 27.0533 20.3025 26.8083 20.0583ZM17.925 22.7917H13.05C12.0167 22.7917 11.175 21.95 11.175 20.9167V12.3833L13.025 14.2333C13.1483 14.3558 13.3083 14.4167 13.4683 14.4167C13.6283 14.4167 13.7883 14.3558 13.91 14.2333C14.1542 13.9892 14.1542 13.5933 13.91 13.35L10.9933 10.4333C10.7492 10.1883 10.3533 10.1883 10.11 10.4333L7.19333 13.35C6.94833 13.5933 6.94833 13.9892 7.19333 14.2333C7.43833 14.4775 7.8325 14.4775 8.07667 14.2333L9.92667 12.3833V20.9167C9.92667 22.64 11.3292 24.0417 13.0517 24.0417H17.9267C18.2717 24.0417 18.5517 23.7617 18.5517 23.4167C18.5517 23.0717 18.2708 22.7917 17.9267 22.7917H17.925Z" fill="#6E767D"/>
<rect width="47" height="16" transform="translate(34 9)" fill="black"/>
<path d="M49.1929 22H50.0562V12.8403H49.1929C48.8184 13.0625 46.9204 14.4082 46.7236 14.5352V15.4556C47.0347 15.2524 48.8818 13.9385 49.1104 13.8115H49.1929V22ZM57.0576 22H57.9019V19.9307H59.2729V19.1499H57.9019V12.8276H56.6577C54.4043 15.9951 53.2744 17.7534 52.4556 19.1372V19.9307H57.0576V22ZM53.3633 19.0991C54.3472 17.4614 55.2549 16.0396 57.0005 13.6592H57.0576V19.1562H53.3633V19.0991ZM65.3223 22H66.1665V19.9307H67.5376V19.1499H66.1665V12.8276H64.9224C62.6689 15.9951 61.5391 17.7534 60.7202 19.1372V19.9307H65.3223V22ZM61.6279 19.0991C62.6118 17.4614 63.5195 16.0396 65.2651 13.6592H65.3223V19.1562H61.6279V19.0991Z" fill="#6E767D"/>
</svg>
