<svg width="81" height="34" viewBox="0 0 81 34" fill="none" xmlns="http://www.w3.org/2000/svg">
<rect width="75" height="34" fill="black"/>
<rect width="34" height="34" rx="17" fill="black"/>
<path d="M17 25.0317H16.9883C14.8358 24.9917 8.625 19.38 8.625 14.065C8.625 11.5117 10.7292 9.27 13.1275 9.27C15.0358 9.27 16.3192 10.5867 16.9992 11.545C17.6775 10.5883 18.9608 9.27 20.87 9.27C23.27 9.27 25.3733 11.5117 25.3733 14.0658C25.3733 19.3792 19.1617 24.9908 17.0092 25.03H17V25.0317ZM13.1283 10.5208C11.395 10.5208 9.87583 12.1775 9.87583 14.0667C9.87583 18.85 15.7375 23.73 17.0008 23.7817C18.2658 23.73 24.1258 18.8508 24.1258 14.0667C24.1258 12.1775 22.6067 10.5208 20.8733 10.5208C18.7667 10.5208 17.59 12.9675 17.58 12.9917C17.3883 13.46 16.6167 13.46 16.4242 12.9917C16.4125 12.9667 15.2367 10.5208 13.1292 10.5208H13.1283Z" fill="#6E767D"/>
<rect width="47" height="16" transform="translate(34 9)" fill="black"/>
<path d="M49.1929 22H50.0562V12.8403H49.1929C48.8184 13.0625 46.9204 14.4082 46.7236 14.5352V15.4556C47.0347 15.2524 48.8818 13.9385 49.1104 13.8115H49.1929V22ZM55.9087 22.1904C57.832 22.1904 59.1587 21.105 59.1587 19.5308C59.1587 18.3438 58.3525 17.4043 57.1592 17.1885V17.1123C58.1558 16.8711 58.7969 16.0713 58.7969 15.0747C58.7969 13.6528 57.5972 12.6499 55.9087 12.6499C54.2202 12.6499 53.0205 13.6592 53.0205 15.0747C53.0205 16.0776 53.668 16.8774 54.6646 17.1123V17.1885C53.4648 17.4043 52.665 18.3438 52.665 19.5308C52.665 21.0986 53.9917 22.1904 55.9087 22.1904ZM55.9087 21.4414C54.5059 21.4414 53.541 20.6353 53.541 19.4736C53.541 18.3438 54.5059 17.563 55.9087 17.563C57.3179 17.563 58.2827 18.3374 58.2827 19.4736C58.2827 20.6353 57.3115 21.4414 55.9087 21.4414ZM55.9087 16.814C54.7026 16.814 53.8774 16.1348 53.8774 15.1445C53.8774 14.1099 54.7026 13.3989 55.9087 13.3989C57.1147 13.3989 57.9399 14.1099 57.9399 15.1445C57.9399 16.1411 57.1147 16.814 55.9087 16.814ZM65.373 22H66.2173V19.9307H67.5884V19.1499H66.2173V12.8276H64.9731C62.7197 15.9951 61.5898 17.7534 60.771 19.1372V19.9307H65.373V22ZM61.6787 19.0991C62.6626 17.4614 63.5703 16.0396 65.3159 13.6592H65.373V19.1562H61.6787V19.0991Z" fill="#6E767D"/>
</svg>
