<svg width="26" height="27" viewBox="0 0 26 27" fill="none" xmlns="http://www.w3.org/2000/svg">
<g filter="url(#filter0_d_102_793)">
<path d="M21.75 10.4167C21.75 9.1 21.0208 7.95833 19.96 7.41667C20.0883 7.05417 20.1583 6.6625 20.1583 6.25C20.1583 4.40833 18.7333 2.91833 16.9766 2.91833C16.585 2.91833 16.21 2.98833 15.8633 3.12667C15.3483 2.0125 14.2583 1.25 13 1.25C11.7416 1.25 10.6533 2.01417 10.1358 3.125C9.78998 2.9875 9.41415 2.91667 9.02248 2.91667C7.26415 2.91667 5.84081 4.40833 5.84081 6.25C5.84081 6.66167 5.90998 7.05333 6.03831 7.41667C4.97831 7.95833 4.24915 9.09833 4.24915 10.4167C4.24915 11.6625 4.90081 12.7483 5.86748 13.3217C5.85081 13.4633 5.84081 13.605 5.84081 13.75C5.84081 15.5917 7.26415 17.0833 9.02248 17.0833C9.41415 17.0833 9.78915 17.0117 10.135 16.875C10.6516 17.9867 11.74 18.75 12.9991 18.75C14.2591 18.75 15.3475 17.9867 15.8633 16.875C16.2091 17.0108 16.5841 17.0817 16.9766 17.0817C18.735 17.0817 20.1583 15.59 20.1583 13.7483C20.1583 13.6033 20.1483 13.4617 20.1308 13.3208C21.0958 12.7483 21.75 11.6625 21.75 10.4175V10.4167ZM16.2366 7.63833L12.625 13.055C12.5041 13.2358 12.3066 13.3333 12.1041 13.3333C11.985 13.3333 11.8641 13.3 11.7575 13.2283L11.6616 13.15L9.64915 11.1375C9.40498 10.8933 9.40498 10.4975 9.64915 10.2542C9.89331 10.0108 10.2891 10.0092 10.5325 10.2542L12.0075 11.7267L15.195 6.94333C15.3866 6.65583 15.775 6.58 16.0616 6.77083C16.35 6.9625 16.4283 7.35083 16.2366 7.6375V7.63833Z" fill="#D9D9D9"/>
</g>
<defs>
<filter id="filter0_d_102_793" x="-1" y="0" width="28" height="28" filterUnits="userSpaceOnUse" color-interpolation-filters="sRGB">
<feFlood flood-opacity="0" result="BackgroundImageFix"/>
<feColorMatrix in="SourceAlpha" type="matrix" values="0 0 0 0 0 0 0 0 0 0 0 0 0 0 0 0 0 0 127 0" result="hardAlpha"/>
<feOffset dy="4"/>
<feGaussianBlur stdDeviation="2"/>
<feComposite in2="hardAlpha" operator="out"/>
<feColorMatrix type="matrix" values="0 0 0 0 0 0 0 0 0 0 0 0 0 0 0 0 0 0 0.25 0"/>
<feBlend mode="normal" in2="BackgroundImageFix" result="effect1_dropShadow_102_793"/>
<feBlend mode="normal" in="SourceGraphic" in2="effect1_dropShadow_102_793" result="shape"/>
</filter>
</defs>
</svg>
